<svg xmlns="http://www.w3.org/2000/svg" viewBox="0 0 1280 720" width="1280" height="720">
	<style>
		tspan { white-space:pre }
	</style>
	<path id="iPlant " fill="linear-gradient(to top, #0ba360 0%, #3cba92 100%)" d="M170.28 313.2Q154.32 313.2 146.34 305.6Q138.36 297.6 138.36 283.6Q138.36 269.6 148.62 260.4Q159.26 250.8 174.84 250.8Q188.9 250.8 197.64 258Q206.38 265.2 206.38 278.4Q206.38 294.4 196.5 304Q186.62 313.2 170.28 313.2ZM167.24 528Q142.54 528 131.14 509.6Q120.12 491.2 120.12 460.8Q120.12 442.8 124.3 414.8Q128.86 386.4 135.7 362Q139.12 349.2 144.82 344.4Q150.52 339.6 163.06 339.6Q182.44 339.6 182.44 353.2Q182.44 363.2 175.22 399.6Q166.1 443.6 166.1 459.2Q166.1 471.2 169.14 477.6Q172.18 484 179.4 484Q186.24 484 196.5 474Q206.76 464 223.86 442.4Q228.42 436.8 234.12 436.8Q239.06 436.8 241.72 441.6Q244.76 446.4 244.76 454.8Q244.76 470.8 237.54 479.6Q199.92 528 167.24 528ZM508.48 287.6Q508.48 321.6 491.76 350Q475.04 378.4 443.12 396.4Q411.2 414.4 367.12 417.6L350.78 514Q341.28 569.6 299.1 569.6Q275.92 569.6 256.16 555.2Q236.78 540.8 225 511.2Q213.22 481.6 213.22 438.4Q213.22 357.2 237.92 300.8Q263 244 304.8 216Q346.98 187.6 397.52 187.6Q433.24 187.6 457.94 200.8Q483.02 214 495.56 236.8Q508.48 259.2 508.48 287.6ZM373.96 376.4Q451.86 366 451.86 291.2Q451.86 264.8 435.14 248.4Q418.8 231.6 384.22 231.6Q345.08 231.6 315.82 257.6Q286.94 283.6 270.98 330Q255.4 376 255.4 435.2Q255.4 460 259.96 479.2Q264.9 498.4 272.12 509.2Q279.72 519.6 286.56 519.6Q296.06 519.6 301 492L313.54 416.4Q298.72 414 300.62 414.4Q289.22 412.4 285.8 407.2Q282.38 401.6 282.38 393.2Q282.38 384.4 286.94 379.2Q291.88 374 300.24 374Q304.04 374 305.94 374.4Q315.06 376 320 376.4Q324.94 345.2 334.06 292.8Q336.34 279.2 344.32 273.6Q352.68 267.6 363.7 267.6Q376.24 267.6 381.56 272.8Q387.26 277.6 387.26 288.4Q387.26 294.8 386.5 298.8L373.96 376.4ZM663.9 436.8Q668.84 436.8 671.5 441.6Q674.54 446.4 674.54 454.8Q674.54 470.8 667.32 479.6Q650.98 500.8 631.6 514.4Q612.6 528 588.28 528Q554.84 528 538.5 496Q522.54 464 522.54 413.2Q522.54 364.4 534.32 302Q546.48 239.6 569.66 194.8Q593.22 150 625.52 150Q643.76 150 654.02 168Q664.66 185.6 664.66 218.8Q664.66 266.4 639.58 329.2Q614.5 392 571.56 453.6Q574.22 470 580.3 477.2Q586.38 484 596.26 484Q611.84 484 623.62 474.8Q635.4 465.2 653.64 442.4Q658.2 436.8 663.9 436.8ZM617.16 189.6Q608.42 189.6 597.4 222.8Q586.38 256 578.02 305.2Q569.66 354.4 568.9 399.6Q595.88 352.8 611.84 306Q627.8 258.8 627.8 220Q627.8 189.6 617.16 189.6ZM686.7 528Q663.14 528 649.08 510Q635.02 492 635.02 462.8Q635.02 430.8 649.08 402.4Q663.14 373.6 686.32 356.4Q709.88 338.8 736.1 338.8Q744.46 338.8 747.12 342.4Q750.16 345.6 752.06 354.4Q760.04 352.8 768.78 352.8Q787.4 352.8 787.4 366.8Q787.4 375.2 781.7 406.8Q772.96 452.8 772.96 470.8Q772.96 476.8 775.62 480.4Q778.66 484 783.22 484Q790.44 484 800.7 474.4Q810.96 464.4 828.44 442.4Q833 436.8 838.7 436.8Q843.64 436.8 846.3 441.6Q849.34 446.4 849.34 454.8Q849.34 470.8 842.12 479.6Q826.54 500 809.06 514Q791.58 528 775.24 528Q762.7 528 752.06 519.2Q741.8 510 736.48 494.4Q716.72 528 686.7 528ZM700.38 487.6Q708.74 487.6 716.34 477.2Q723.94 466.8 727.36 449.6L741.42 376Q725.46 376.4 711.78 388.8Q698.48 400.8 690.5 420.8Q682.52 440.8 682.52 463.2Q682.52 475.6 687.08 481.6Q692.02 487.6 700.38 487.6ZM845.54 528Q831.1 528 825.02 512Q819.32 496 819.32 460.8Q819.32 408.8 833.38 362Q836.8 350.4 844.4 345.2Q852.38 339.6 866.44 339.6Q874.04 339.6 877.08 341.6Q880.12 343.6 880.12 349.2Q880.12 355.6 874.42 378Q870.62 394 868.34 406Q866.06 418 864.54 435.6Q877.08 401.2 892.66 379.6Q908.24 358 923.06 348.8Q938.26 339.6 950.8 339.6Q975.5 339.6 975.5 365.6Q975.5 381.2 967.14 422Q959.92 456.8 959.92 468Q959.92 484 970.94 484Q978.54 484 988.8 474.4Q999.44 464.4 1016.92 442.4Q1021.48 436.8 1027.18 436.8Q1032.12 436.8 1034.78 441.6Q1037.82 446.4 1037.82 454.8Q1037.82 470.8 1030.6 479.6Q1014.26 500.8 995.26 514.4Q976.64 528 952.7 528Q933.32 528 923.44 516.4Q913.56 504.4 913.56 482Q913.56 470.8 918.88 442Q923.82 416.8 923.82 407.2Q923.82 400.8 919.64 400.8Q914.7 400.8 905.58 414.4Q896.84 427.6 887.34 449.6Q878.22 471.6 872.52 496Q868.34 514.8 862.64 521.6Q857.32 528 845.54 528ZM1116.1 377.6L1069.74 377.6Q1068.98 397.6 1068.98 408.8Q1068.98 437.6 1071.64 454Q1074.68 470 1081.14 477.2Q1087.98 484 1099.76 484Q1105.84 484 1114.2 480Q1122.56 476 1129.4 469.6Q1133.58 465.6 1137.76 465.6Q1142.32 465.6 1144.98 471.2Q1148.02 476.4 1148.02 484Q1148.02 491.6 1144.98 498.8Q1142.32 506 1136.62 510.8Q1116.86 528 1091.78 528Q1055.68 528 1038.96 496.4Q1022.24 464.4 1022.24 413.2Q1022.24 395.6 1023.38 377.6L1008.56 377.6Q997.16 377.6 992.98 373.2Q989.18 368.8 989.18 359.2Q989.18 336.8 1006.28 336.8L1027.94 336.8Q1034.4 292.8 1047.7 256.4Q1061 220 1079.62 198.4Q1098.62 176.8 1120.28 176.8Q1136.24 176.8 1145.36 191.6Q1154.48 206.4 1154.48 228.8Q1154.48 290.8 1105.08 336.8L1147.64 336.8Q1153.72 336.8 1156.38 339.6Q1159.04 342.4 1159.04 350Q1159.04 377.6 1116.1 377.6ZM1110.02 215.2Q1104.32 215.2 1097.1 230.4Q1090.26 245.2 1083.8 272Q1077.72 298.4 1073.54 330.8Q1095.96 310.4 1106.98 285.2Q1118.38 259.6 1118.38 238.8Q1118.38 215.2 1110.02 215.2Z" />
</svg>